<svg width="49" height="48" viewBox="0 0 49 48" fill="none" xmlns="http://www.w3.org/2000/svg">
<path d="M24.5 32.228C16.504 20.326 7.352 18.142 6.94 18.048L4.5 17.5V20C4.5 34.58 12.35 44 24.5 44C36.462 44 44.5 34.356 44.5 20V17.5L42.06 18.048C41.648 18.142 32.496 20.326 24.5 32.228Z" fill="#2CB5B4"/>
<path d="M23.048 7.534C19.45 11.33 17.368 15.084 16.162 18.124C18.82 19.692 21.724 22.01 24.48 25.494C27.208 21.974 30.132 19.644 32.82 18.076C31.61 15.046 29.528 11.31 25.95 7.534L24.5 6L23.048 7.534Z" fill="#2CB5B4"/>
</svg>
