<svg width="48" height="48" viewBox="0 0 48 48" fill="none" xmlns="http://www.w3.org/2000/svg">
<path d="M29.5 30C31.432 30 33 31.568 33 33.5L32.998 35.424C33.232 39.804 29.976 42.018 24.134 42.018C18.314 42.018 15 39.838 15 35.5V33.5C15 31.568 16.568 30 18.5 30H29.5ZM7.5 20H16.252C15.903 21.358 15.9165 22.7838 16.2909 24.1349C16.6654 25.4861 17.3878 26.7154 18.386 27.7L18.71 28.002L18.5 28C17.2997 27.9996 16.1321 28.3918 15.1756 29.1169C14.219 29.842 13.5259 30.8602 13.202 32.016L13.134 32.018C7.314 32.018 4 29.838 4 25.5V23.5C4 21.568 5.568 20 7.5 20ZM40.5 20C42.432 20 44 21.568 44 23.5L43.998 25.424C44.232 29.804 40.976 32.018 35.134 32.018L34.796 32.014C34.4885 30.9246 33.8531 29.9563 32.9761 29.2406C32.099 28.525 31.0229 28.0967 29.894 28.014L29.5 28L29.29 28.002C30.4002 27.0268 31.2179 25.7626 31.6519 24.3501C32.0859 22.9376 32.1192 21.4323 31.748 20.002L40.5 20ZM24 16C24.7879 16 25.5681 16.1552 26.2961 16.4567C27.0241 16.7583 27.6855 17.2002 28.2426 17.7574C28.7998 18.3145 29.2417 18.9759 29.5433 19.7039C29.8448 20.4319 30 21.2121 30 22C30 22.7879 29.8448 23.5681 29.5433 24.2961C29.2417 25.0241 28.7998 25.6855 28.2426 26.2426C27.6855 26.7998 27.0241 27.2417 26.2961 27.5433C25.5681 27.8448 24.7879 28 24 28C22.4087 28 20.8826 27.3679 19.7574 26.2426C18.6321 25.1174 18 23.5913 18 22C18 20.4087 18.6321 18.8826 19.7574 17.7574C20.8826 16.6321 22.4087 16 24 16ZM13 6C14.5913 6 16.1174 6.63214 17.2426 7.75736C18.3679 8.88258 19 10.4087 19 12C19 13.5913 18.3679 15.1174 17.2426 16.2426C16.1174 17.3679 14.5913 18 13 18C11.4087 18 9.88258 17.3679 8.75736 16.2426C7.63214 15.1174 7 13.5913 7 12C7 10.4087 7.63214 8.88258 8.75736 7.75736C9.88258 6.63214 11.4087 6 13 6ZM35 6C36.5913 6 38.1174 6.63214 39.2426 7.75736C40.3679 8.88258 41 10.4087 41 12C41 13.5913 40.3679 15.1174 39.2426 16.2426C38.1174 17.3679 36.5913 18 35 18C33.4087 18 31.8826 17.3679 30.7574 16.2426C29.6321 15.1174 29 13.5913 29 12C29 10.4087 29.6321 8.88258 30.7574 7.75736C31.8826 6.63214 33.4087 6 35 6Z" fill="#474BA5"/>
</svg>
