<svg width="49" height="48" viewBox="0 0 49 48" fill="none" xmlns="http://www.w3.org/2000/svg">
<path d="M6.5 18C6.5 15.8783 7.34285 13.8434 8.84315 12.3431C10.3434 10.8429 12.3783 10 14.5 10H34.5C36.6217 10 38.6566 10.8429 40.1569 12.3431C41.6571 13.8434 42.5 15.8783 42.5 18V34C42.5 36.1217 41.6571 38.1566 40.1569 39.6569C38.6566 41.1571 36.6217 42 34.5 42H14.5C12.3783 42 10.3434 41.1571 8.84315 39.6569C7.34285 38.1566 6.5 36.1217 6.5 34V18Z" fill="#044D80"/>
<path d="M16.5 8V12" stroke="#044D80" stroke-width="2" stroke-linecap="round" stroke-linejoin="round"/>
<path d="M32.5 8V12" stroke="#044D80" stroke-width="2" stroke-linecap="round" stroke-linejoin="round"/>
<path d="M16.5 22C17.6046 22 18.5 21.1046 18.5 20C18.5 18.8954 17.6046 18 16.5 18C15.3954 18 14.5 18.8954 14.5 20C14.5 21.1046 15.3954 22 16.5 22Z" fill="white"/>
<path d="M24.5 22C25.6046 22 26.5 21.1046 26.5 20C26.5 18.8954 25.6046 18 24.5 18C23.3954 18 22.5 18.8954 22.5 20C22.5 21.1046 23.3954 22 24.5 22Z" fill="white"/>
<path d="M32.5 22C33.6046 22 34.5 21.1046 34.5 20C34.5 18.8954 33.6046 18 32.5 18C31.3954 18 30.5 18.8954 30.5 20C30.5 21.1046 31.3954 22 32.5 22Z" fill="white"/>
<path d="M16.5 30C17.6046 30 18.5 29.1046 18.5 28C18.5 26.8954 17.6046 26 16.5 26C15.3954 26 14.5 26.8954 14.5 28C14.5 29.1046 15.3954 30 16.5 30Z" fill="white"/>
</svg>
