<svg width="48" height="48" viewBox="0 0 48 48" fill="none" xmlns="http://www.w3.org/2000/svg">
<path d="M10 32H14C14 30.9 13.608 29.958 12.824 29.174C12.0413 28.3913 11.1 28 10 28V32ZM17.1 32H20C20 29.2333 19.0247 26.8747 17.074 24.924C15.1247 22.9747 12.7667 22 10 22V24.9C11.9667 24.9 13.642 25.592 15.026 26.976C16.4087 28.3587 17.1 30.0333 17.1 32ZM23.1 32H26C26 29.8 25.5833 27.7247 24.75 25.774C23.9167 23.8247 22.7753 22.1247 21.326 20.674C19.8753 19.2247 18.1753 18.0833 16.226 17.25C14.2753 16.4167 12.2 16 10 16V18.9C13.6333 18.9 16.7253 20.1747 19.276 22.724C21.8253 25.2747 23.1 28.3667 23.1 32ZM16 42V38H8C6.9 38 5.95867 37.6087 5.176 36.826C4.392 36.042 4 35.1 4 34V10C4 8.9 4.392 7.958 5.176 7.174C5.95867 6.39133 6.9 6 8 6H40C41.1 6 42.042 6.39133 42.826 7.174C43.6087 7.958 44 8.9 44 10V34C44 35.1 43.6087 36.042 42.826 36.826C42.042 37.6087 41.1 38 40 38H32V42H16Z" fill="#FF6436"/>
</svg>
