<svg width="49" height="48" viewBox="0 0 49 48" fill="none" xmlns="http://www.w3.org/2000/svg">
<path d="M35.952 26.04L28.5 32H18.5V30H26.63C26.8109 29.9999 26.9884 29.9508 27.1435 29.8578C27.2987 29.7648 27.4257 29.6315 27.5111 29.472C27.5965 29.3125 27.637 29.1329 27.6283 28.9522C27.6197 28.7715 27.5622 28.5966 27.462 28.446L25.686 25.782C25.3217 25.2336 24.8273 24.7839 24.247 24.473C23.6666 24.1621 23.0184 23.9996 22.36 24H6.5C5.96957 24 5.46086 24.2107 5.08579 24.5858C4.71071 24.9609 4.5 25.4696 4.5 26V38C4.5 39.0609 4.92143 40.0783 5.67157 40.8284C6.42172 41.5786 7.43913 42 8.5 42H27.778C28.6332 42.0002 29.4786 41.8176 30.2575 41.4644C31.0363 41.1111 31.7307 40.5955 32.294 39.952L44.5 26L41.596 25.032C40.6459 24.7153 39.6316 24.6416 38.6457 24.8177C37.6598 24.9938 36.7337 25.414 35.952 26.04ZM39.016 14.78C39.918 13.85 40.476 12.564 40.476 11.144C40.476 9.724 39.918 8.438 39.016 7.508C38.5598 7.03196 38.0122 6.65299 37.4059 6.39386C36.7997 6.13472 36.1473 6.00075 35.488 6C35.488 6 33 5.994 30.5 8.572C28 5.994 25.512 6 25.512 6C24.8529 6.00084 24.2007 6.13465 23.5945 6.39342C22.9883 6.65218 22.4405 7.0306 21.984 7.506C21.082 8.438 20.524 9.722 20.524 11.142C20.524 12.562 21.082 13.85 21.984 14.778L30.5 24L39.016 14.78Z" fill="#F5A623"/>
</svg>
